<?xml version="1.0" encoding="UTF-8" standalone="no"?>
<svg
   xmlns:dc="http://purl.org/dc/elements/1.1/"
   xmlns:cc="http://creativecommons.org/ns#"
   xmlns:rdf="http://www.w3.org/1999/02/22-rdf-syntax-ns#"
   xmlns:svg="http://www.w3.org/2000/svg"
   xmlns="http://www.w3.org/2000/svg"
   xmlns:xlink="http://www.w3.org/1999/xlink"
   xml:space="preserve"
   width="512px"
   viewBox="0 0 512 512"
   version="1.1"
   style="enable-background:new 0 0 512 512;"
   id="Layer_1"
   height="512px"><metadata
     id="metadata256"><rdf:RDF><cc:Work
         rdf:about=""><dc:format>image/svg+xml</dc:format><dc:type
           rdf:resource="http://purl.org/dc/dcmitype/StillImage" /><dc:title></dc:title></cc:Work></rdf:RDF></metadata><defs
     id="defs254" /><g
     id="Layer_1_1_"><circle
       id="circle2"
       style="fill:#8DC63F;"
       r="243"
       cy="262.285"
       cx="250.189" /></g><g
     id="Layer_2"><g
       id="Favorite" /><g
       id="g248"><g
         id="g124"><g
           id="g14"><defs
             id="defs7"><circle
               r="243"
               id="SVGID_1_"
               cy="262.285"
               cx="250.189" /></defs><clipPath
             id="SVGID_2_"><use
               id="use9"
               xlink:href="#SVGID_1_"
               style="overflow:visible;" /></clipPath><rect
             id="rect12"
             clip-path="url(#SVGID_2_)"
             y="242.555"
             width="388.694"
             style="clip-path:url(#SVGID_2_);fill:#FFFFFF;"
             height="401.872" /></g><g
           id="g26"><defs
             id="defs17"><circle
               r="243"
               id="SVGID_3_"
               cy="262.285"
               cx="250.189" /></defs><clipPath
             id="SVGID_4_"><use
               id="use19"
               xlink:href="#SVGID_3_"
               style="overflow:visible;" /></clipPath><g
             id="g24"
             clip-path="url(#SVGID_4_)"
             style="opacity:0.7;clip-path:url(#SVGID_4_);adobe-blending-mode:multiply;"><rect
               id="rect22"
               y="270.802"
               x="193.556"
               width="166.69"
               style="fill:#8299CE;adobe-blending-mode:normal;"
               height="26.614" /></g></g><g
           id="g38"><defs
             id="defs29"><circle
               r="243"
               id="SVGID_5_"
               cy="262.285"
               cx="250.189" /></defs><clipPath
             id="SVGID_6_"><use
               id="use31"
               xlink:href="#SVGID_5_"
               style="overflow:visible;" /></clipPath><g
             id="g36"
             clip-path="url(#SVGID_6_)"
             style="opacity:0.7;clip-path:url(#SVGID_6_);adobe-blending-mode:multiply;"><rect
               id="rect34"
               y="316.326"
               x="9.356"
               width="350.889"
               style="fill:#8299CE;adobe-blending-mode:normal;"
               height="8.405" /></g></g><g
           id="g50"><defs
             id="defs41"><circle
               r="243"
               id="SVGID_7_"
               cy="262.285"
               cx="250.189" /></defs><clipPath
             id="SVGID_8_"><use
               id="use43"
               xlink:href="#SVGID_7_"
               style="overflow:visible;" /></clipPath><g
             id="g48"
             clip-path="url(#SVGID_8_)"
             style="opacity:0.7;clip-path:url(#SVGID_8_);adobe-blending-mode:multiply;"><rect
               id="rect46"
               y="336.171"
               x="9.356"
               width="350.889"
               style="fill:#8299CE;adobe-blending-mode:normal;"
               height="8.405" /></g></g><g
           id="g62"><defs
             id="defs53"><circle
               r="243"
               id="SVGID_9_"
               cy="262.285"
               cx="250.189" /></defs><clipPath
             id="SVGID_10_"><use
               id="use55"
               xlink:href="#SVGID_9_"
               style="overflow:visible;" /></clipPath><g
             id="g60"
             clip-path="url(#SVGID_10_)"
             style="opacity:0.7;clip-path:url(#SVGID_10_);adobe-blending-mode:multiply;"><rect
               id="rect58"
               y="358.851"
               x="9.356"
               width="350.889"
               style="fill:#8299CE;adobe-blending-mode:normal;"
               height="8.405" /></g></g><g
           id="g74"><defs
             id="defs65"><circle
               r="243"
               id="SVGID_11_"
               cy="262.285"
               cx="250.189" /></defs><clipPath
             id="SVGID_12_"><use
               id="use67"
               xlink:href="#SVGID_11_"
               style="overflow:visible;" /></clipPath><g
             id="g72"
             clip-path="url(#SVGID_12_)"
             style="opacity:0.7;clip-path:url(#SVGID_12_);adobe-blending-mode:multiply;"><rect
               id="rect70"
               y="381.531"
               x="9.356"
               width="350.889"
               style="fill:#8299CE;adobe-blending-mode:normal;"
               height="8.405" /></g></g><g
           id="g86"><defs
             id="defs77"><circle
               r="243"
               id="SVGID_13_"
               cy="262.285"
               cx="250.189" /></defs><clipPath
             id="SVGID_14_"><use
               id="use79"
               xlink:href="#SVGID_13_"
               style="overflow:visible;" /></clipPath><g
             id="g84"
             clip-path="url(#SVGID_14_)"
             style="opacity:0.7;clip-path:url(#SVGID_14_);adobe-blending-mode:multiply;"><rect
               id="rect82"
               y="404.211"
               x="9.356"
               width="261.941"
               style="fill:#8299CE;adobe-blending-mode:normal;"
               height="8.405" /></g></g><g
           id="g98"><defs
             id="defs89"><circle
               r="243"
               id="SVGID_15_"
               cy="262.285"
               cx="250.189" /></defs><clipPath
             id="SVGID_16_"><use
               id="use91"
               xlink:href="#SVGID_15_"
               style="overflow:visible;" /></clipPath><g
             id="g96"
             clip-path="url(#SVGID_16_)"
             style="opacity:0.7;clip-path:url(#SVGID_16_);adobe-blending-mode:multiply;"><rect
               id="rect94"
               y="452.406"
               x="9.356"
               width="350.889"
               style="fill:#8299CE;adobe-blending-mode:normal;"
               height="8.405" /></g></g><g
           id="g110"><defs
             id="defs101"><circle
               r="243"
               id="SVGID_17_"
               cy="262.285"
               cx="250.189" /></defs><clipPath
             id="SVGID_18_"><use
               id="use103"
               xlink:href="#SVGID_17_"
               style="overflow:visible;" /></clipPath><g
             id="g108"
             clip-path="url(#SVGID_18_)"
             style="opacity:0.7;clip-path:url(#SVGID_18_);adobe-blending-mode:multiply;"><rect
               id="rect106"
               y="472.251"
               x="9.356"
               width="350.889"
               style="fill:#8299CE;adobe-blending-mode:normal;"
               height="8.405" /></g></g><g
           id="g122"><defs
             id="defs113"><circle
               r="243"
               id="SVGID_19_"
               cy="262.285"
               cx="250.189" /></defs><clipPath
             id="SVGID_20_"><use
               id="use115"
               xlink:href="#SVGID_19_"
               style="overflow:visible;" /></clipPath><g
             id="g120"
             clip-path="url(#SVGID_20_)"
             style="opacity:0.7;clip-path:url(#SVGID_20_);adobe-blending-mode:multiply;"><rect
               id="rect118"
               y="494.931"
               x="9.356"
               width="350.889"
               style="fill:#8299CE;adobe-blending-mode:normal;"
               height="8.405" /></g></g></g><path
         id="path126"
         style="fill:#F1AAAF;"
         d="M234.553,86.175l-13.184,21.496c-1.368,2.23-4.464,2.815-6.923,1.307l-32.089-19.681    c-2.459-1.508-3.341-4.533-1.973-6.763l13.184-21.496c1.368-2.23,4.464-2.815,6.923-1.307l32.089,19.681    C235.039,80.921,235.921,83.945,234.553,86.175z" /><g
         id="g130"><polygon
           id="polygon128"
           style="opacity:0.2;adobe-blending-mode:multiply;enable-background:new    ;"
           points="90.821,241.802 64.749,242.63      33.222,300.772 39.666,357.873    " /></g><path
         id="path132"
         style="opacity:0.5;fill:#F1AAAF;adobe-blending-mode:multiply;enable-background:new    ;"
         d="M205.784,62.978    L187.65,92.544l-5.293-3.246c-2.459-1.508-3.341-4.533-1.973-6.763l13.184-21.496c1.368-2.23,4.464-2.815,6.923-1.307    L205.784,62.978z" /><rect
         id="rect134"
         y="185.837"
         x="7.008"
         width="246.924"
         transform="matrix(-0.5228 0.8524 -0.8524 -0.5228 377.5892 208.3866)"
         style="fill:#E44F50;"
         height="48.078" /><polygon
         id="polygon136"
         style="fill:#FFDD00;"
         points="86.237,327.581 43.262,352.011 45.557,302.631   " /><rect
         id="rect138"
         y="193.975"
         x="-7.533"
         width="246.924"
         transform="matrix(-0.5228 0.8524 -0.8524 -0.5228 347.8426 207.1982)"
         style="fill:#E44F50;adobe-blending-mode:multiply;enable-background:new    ;"
         height="13.961" /><rect
         id="rect140"
         y="211.609"
         x="21.434"
         width="246.924"
         transform="matrix(-0.5228 0.8524 -0.8524 -0.5228 407.1001 209.5631)"
         style="opacity:0.5;fill:#E44F50;adobe-blending-mode:multiply;enable-background:new    ;"
         height="14.229" /><polygon
         id="polygon142"
         style="opacity:0.5;fill:#FFDD00;adobe-blending-mode:multiply;enable-background:new    ;"
         points="43.262,352.011     45.557,302.631 57.338,309.856   " /><polygon
         id="polygon144"
         style="opacity:0.5;fill:#FFDD00;adobe-blending-mode:multiply;enable-background:new    ;"
         points="86.237,327.581     43.262,352.011 74.291,320.254   " /><path
         id="path146"
         style="fill:#AFB6DC;"
         d="M223.488,109.462l-4.283,6.983c-1.508,2.459-4.723,3.224-7.176,1.72l-36.556-22.421    c-2.453-1.504-3.228-4.717-1.72-7.176l4.283-6.983c1.504-2.453,4.723-3.224,7.176-1.72l36.556,22.421    C224.221,103.79,224.993,107.009,223.488,109.462z" /><path
         id="path148"
         style="fill:#AFB6DC;adobe-blending-mode:multiply;enable-background:new    ;"
         d="M189.787,82.671l-9.739,15.879    l-4.575-2.806c-2.453-1.504-3.228-4.717-1.72-7.176l4.283-6.983c1.504-2.453,4.723-3.224,7.176-1.72L189.787,82.671z" /><g
         id="g154"><polygon
           id="polygon150"
           style="fill:#8299CE;"
           points="52.429,346.83 39.666,357.873 43.724,341.491    " /><polygon
           id="polygon152"
           style="fill:#8299CE;adobe-blending-mode:multiply;enable-background:new    ;"
           points="52.429,346.83 39.666,357.873      43.724,341.491    " /></g><g
         id="g158"><path
           id="path156"
           style="opacity:0.2;adobe-blending-mode:multiply;enable-background:new    ;"
           d="M332.279,242.635l-250.09,195.22     c-7.71-7.38-14.93-15.26-21.61-23.59c-4.13-5.14-8.05-10.45-11.76-15.92c0,0,0-0.01-0.01-0.01c-0.01-0.01-0.01-0.02-0.02-0.03     s-0.01-0.02-0.02-0.03c-1.15-1.73-2.32-3.47-3.44-5.24c-0.96-1.51-1.91-3.02-2.84-4.55c-1.87-3.07-3.68-6.19-5.4-9.35     l174.87-136.5L332.279,242.635L332.279,242.635z" /></g><g
         id="g164"><path
           id="path160"
           style="fill:#F5BA3D;"
           d="M499.109,125.955l-32.63,25.47l-376.3,293.74c-2.72-2.38-5.38-4.82-7.99-7.31     c-7.71-7.38-14.93-15.26-21.61-23.59c-4.13-5.14-8.05-10.45-11.76-15.92c0,0,0-0.01-0.01-0.01c-0.01-0.01-0.01-0.02-0.02-0.03     c-1.16-1.74-2.33-3.49-3.46-5.27c-0.96-1.51-1.91-3.02-2.84-4.55l186.83-145.85l193.68-151.18l30.56-23.86l3.29,4.21l15.95,20.44     L499.109,125.955z" /><path
           id="path162"
           style="opacity:0.5;fill:#BF912F;adobe-blending-mode:multiply;enable-background:new    ;"
           d="M499.109,125.955     l-32.63,25.47l-376.3,293.74c-2.72-2.38-5.38-4.82-7.99-7.31c-7.71-7.38-14.93-15.26-21.61-23.59     c-4.13-5.14-8.05-10.45-11.76-15.92c0,0,0-0.01-0.01-0.01c-0.01-0.01-0.01-0.02-0.02-0.03c-1.16-1.74-2.33-3.49-3.46-5.27     c-0.96-1.51-1.91-3.02-2.84-4.55l186.83-145.85l193.68-151.18l30.56-23.86l3.29,4.21l15.95,20.44L499.109,125.955z" /></g><path
         id="path166"
         style="fill:#F5BA3D;"
         d="M502.399,130.165l-33.48,26.14l-374.59,292.41c-1.4-1.17-2.78-2.35-4.15-3.55    c-2.72-2.38-5.38-4.82-7.99-7.31c-7.71-7.38-14.93-15.26-21.61-23.59c-4.13-5.14-8.05-10.45-11.76-15.92c0,0,0-0.01-0.01-0.01    c-0.01-0.01-0.01-0.02-0.02-0.03c-1.16-1.74-2.33-3.49-3.46-5.27l192.68-150.4l188.72-147.32l30.12-23.51l15.95,20.44l26.31,33.71    L502.399,130.165z" /><path
         id="path168"
         style="opacity:0.2;fill:#F5BA3D;adobe-blending-mode:multiply;enable-background:new    ;"
         d="M472.799,92.245l-22.5,17.58    l-6.75,5.27l-13.74,10.73l-20.48,16.01l-20.5,16l-20.49,16.01l-20.48,16.01l-20.5,16l-20.49,16.01l-20.48,16.01l-6.1,4.76    l-14.4,11.24l-20.48,16.01l-20.49,16l-20.49,16.01l-20.49,16l-40.98,32.02l-20.49,16l-20.49,16.01l-20.48,16.01l-20.5,16    l-0.42,0.33c-4.13-5.14-8.05-10.45-11.76-15.92c-1.18-1.75-2.35-3.52-3.49-5.31l192.68-150.4l188.72-147.32l30.12-23.51    L472.799,92.245z" /><g
         id="g246"
         style="opacity:0.6;adobe-blending-mode:multiply;"><g
           id="g172"
           style="adobe-blending-mode:normal;"><line
             id="line170"
             y2="117.917"
             y1="92.355"
             x2="456.623"
             x1="436.654"
             style="fill:none;stroke:#F5BA3D;stroke-width:4;stroke-linecap:round;stroke-miterlimit:10;" /></g><g
           id="g176"
           style="adobe-blending-mode:normal;"><line
             id="line174"
             y2="133.923"
             y1="108.361"
             x2="436.134"
             x1="416.165"
             style="fill:none;stroke:#F5BA3D;stroke-width:4;stroke-linecap:round;stroke-miterlimit:10;" /></g><g
           id="g180"
           style="adobe-blending-mode:normal;"><line
             id="line178"
             y2="149.929"
             y1="124.367"
             x2="415.645"
             x1="395.676"
             style="fill:none;stroke:#F5BA3D;stroke-width:4;stroke-linecap:round;stroke-miterlimit:10;" /></g><g
           id="g184"
           style="adobe-blending-mode:normal;"><line
             id="line182"
             y2="165.936"
             y1="140.373"
             x2="395.156"
             x1="375.187"
             style="fill:none;stroke:#F5BA3D;stroke-width:4;stroke-linecap:round;stroke-miterlimit:10;" /></g><g
           id="g188"
           style="adobe-blending-mode:normal;"><line
             id="line186"
             y2="181.942"
             y1="156.379"
             x2="374.667"
             x1="354.697"
             style="fill:none;stroke:#F5BA3D;stroke-width:4;stroke-linecap:round;stroke-miterlimit:10;" /></g><g
           id="g192"
           style="adobe-blending-mode:normal;"><line
             id="line190"
             y2="197.948"
             y1="172.386"
             x2="354.178"
             x1="334.208"
             style="fill:none;stroke:#F5BA3D;stroke-width:4;stroke-linecap:round;stroke-miterlimit:10;" /></g><g
           id="g196"
           style="adobe-blending-mode:normal;"><line
             id="line194"
             y2="213.954"
             y1="188.392"
             x2="333.689"
             x1="313.719"
             style="fill:none;stroke:#F5BA3D;stroke-width:4;stroke-linecap:round;stroke-miterlimit:10;" /></g><g
           id="g200"
           style="adobe-blending-mode:normal;"><line
             id="line198"
             y2="229.96"
             y1="204.398"
             x2="313.2"
             x1="293.23"
             style="fill:none;stroke:#F5BA3D;stroke-width:4;stroke-linecap:round;stroke-miterlimit:10;" /></g><g
           id="g204"
           style="adobe-blending-mode:normal;"><line
             id="line202"
             y2="245.967"
             y1="220.404"
             x2="292.711"
             x1="272.741"
             style="fill:none;stroke:#F5BA3D;stroke-width:4;stroke-linecap:round;stroke-miterlimit:10;" /></g><g
           id="g208"
           style="adobe-blending-mode:normal;"><line
             id="line206"
             y2="261.973"
             y1="236.41"
             x2="272.222"
             x1="252.252"
             style="fill:none;stroke:#F5BA3D;stroke-width:4;stroke-linecap:round;stroke-miterlimit:10;" /></g><g
           id="g212"
           style="adobe-blending-mode:normal;"><line
             id="line210"
             y2="277.979"
             y1="252.417"
             x2="251.733"
             x1="231.763"
             style="fill:none;stroke:#F5BA3D;stroke-width:4;stroke-linecap:round;stroke-miterlimit:10;" /></g><g
           id="g216"
           style="adobe-blending-mode:normal;"><line
             id="line214"
             y2="293.985"
             y1="268.423"
             x2="231.244"
             x1="211.274"
             style="fill:none;stroke:#F5BA3D;stroke-width:4;stroke-linecap:round;stroke-miterlimit:10;" /></g><g
           id="g220"
           style="adobe-blending-mode:normal;"><line
             id="line218"
             y2="309.991"
             y1="284.429"
             x2="210.755"
             x1="190.785"
             style="fill:none;stroke:#F5BA3D;stroke-width:4;stroke-linecap:round;stroke-miterlimit:10;" /></g><g
           id="g224"
           style="adobe-blending-mode:normal;"><line
             id="line222"
             y2="325.998"
             y1="300.435"
             x2="190.266"
             x1="170.296"
             style="fill:none;stroke:#F5BA3D;stroke-width:4;stroke-linecap:round;stroke-miterlimit:10;" /></g><g
           id="g228"
           style="adobe-blending-mode:normal;"><line
             id="line226"
             y2="342.004"
             y1="316.441"
             x2="169.776"
             x1="149.807"
             style="fill:none;stroke:#F5BA3D;stroke-width:4;stroke-linecap:round;stroke-miterlimit:10;" /></g><g
           id="g232"
           style="adobe-blending-mode:normal;"><line
             id="line230"
             y2="358.01"
             y1="332.448"
             x2="149.287"
             x1="129.318"
             style="fill:none;stroke:#F5BA3D;stroke-width:4;stroke-linecap:round;stroke-miterlimit:10;" /></g><g
           id="g236"
           style="adobe-blending-mode:normal;"><line
             id="line234"
             y2="374.016"
             y1="348.454"
             x2="128.798"
             x1="108.829"
             style="fill:none;stroke:#F5BA3D;stroke-width:4;stroke-linecap:round;stroke-miterlimit:10;" /></g><g
           id="g240"
           style="adobe-blending-mode:normal;"><line
             id="line238"
             y2="390.022"
             y1="364.46"
             x2="108.309"
             x1="88.34"
             style="fill:none;stroke:#F5BA3D;stroke-width:4;stroke-linecap:round;stroke-miterlimit:10;" /></g><g
           id="g244"
           style="adobe-blending-mode:normal;"><line
             id="line242"
             y2="406.029"
             y1="380.466"
             x2="87.82"
             x1="67.851"
             style="fill:none;stroke:#F5BA3D;stroke-width:4;stroke-linecap:round;stroke-miterlimit:10;" /></g></g></g></g></svg>