<?xml version="1.0" encoding="UTF-8" standalone="no"?>
<svg
   xmlns:dc="http://purl.org/dc/elements/1.1/"
   xmlns:cc="http://creativecommons.org/ns#"
   xmlns:rdf="http://www.w3.org/1999/02/22-rdf-syntax-ns#"
   xmlns:svg="http://www.w3.org/2000/svg"
   xmlns="http://www.w3.org/2000/svg"
   id="svg58"
   xml:space="preserve"
   viewBox="0 0 197.998 197.998"
   height="197.998"
   width="197.998"
   y="0px"
   x="0px"
   version="1.1"><metadata
   id="metadata64"><rdf:RDF><cc:Work
       rdf:about=""><dc:format>image/svg+xml</dc:format><dc:type
         rdf:resource="http://purl.org/dc/dcmitype/StillImage" /><dc:title></dc:title></cc:Work></rdf:RDF></metadata><defs
   id="defs62" />
<g
   transform="translate(-18.501,-18.502)"
   id="School">
	<ellipse
   ry="89.108856"
   rx="89.519173"
   cy="117.5056"
   cx="117.69377"
   id="path4581"
   style="opacity:1;fill:#b1b1b1;fill-opacity:1;stroke:#b1b1b1;stroke-width:1.21833742;stroke-opacity:1" />
	<path
   id="path4"
   d="m 117.5,18.502 c -54.676,0 -98.999,44.323 -98.999,98.999 0,54.675 44.323,98.999 98.999,98.999 54.675,0 98.999,-44.324 98.999,-98.999 0,-54.676 -44.324,-98.999 -98.999,-98.999 z m 0,184.477 c -47.209,0 -85.479,-38.27 -85.479,-85.478 0,-47.209 38.271,-85.479 85.479,-85.479 47.208,0 85.479,38.271 85.479,85.479 0,47.208 -38.271,85.478 -85.479,85.478 z"
   style="fill:#e3e3e3" />
	<path
   id="path6"
   d="m 197.227,117.501 c 0,44.03 -35.694,79.724 -79.726,79.724 -44.033,0 -79.728,-35.693 -79.728,-79.724 0,-44.033 35.694,-79.729 79.728,-79.729 44.031,0 79.726,35.696 79.726,79.729 z"
   style="fill:#eda33f" />
	<ellipse
   id="ellipse8"
   ry="6.073"
   rx="65.733002"
   cy="153.814"
   cx="117.5" />
	<rect
   id="rect10"
   height="2.9519999"
   width="114.066"
   style="fill:#352200"
   y="108.467"
   x="60.466" />
	<polygon
   id="polygon12"
   points="101.73,111.409 61.74,111.409 61.74,153.814 173.259,153.814 173.259,111.409 133.269,111.409 133.269,85.643 117.5,75.444 117.499,75.444 101.73,85.643 "
   style="fill:#d3d5d6" />
	<rect
   id="rect14"
   height="19.593"
   width="14.625"
   style="fill:#352200"
   y="134.222"
   x="110.188" />
	<circle
   id="circle16"
   r="10.735"
   cy="97.452003"
   cx="117.5"
   style="fill:#352200" />
	<circle
   id="circle18"
   r="9.1090002"
   cy="97.452003"
   cx="117.5"
   style="fill:#ffffff" />
	<path
   id="path20"
   d="m 116.698,90.62 v 6.555 h -6.555 v 1.92 h 7.515 v 0 c 0.529,-0.001 0.959,-0.43 0.959,-0.96 h 10e-4 V 90.62 Z"
   style="fill:#352200" />
	<polygon
   id="polygon22"
   points="134.316,87.653 134.316,82.305 117.5,72.126 100.684,82.305 100.684,87.653 117.5,77.494 "
   style="fill:#352200" />
	<g
   id="g36">
		<rect
   id="rect24"
   height="12.749"
   width="9.6619997"
   style="fill:#8fbdcf"
   y="115.703"
   x="65.498001" />
		<rect
   id="rect26"
   height="12.749"
   width="9.6619997"
   style="fill:#8fbdcf"
   y="115.703"
   x="78.917999" />
		<rect
   id="rect28"
   height="12.749"
   width="9.6619997"
   style="fill:#8fbdcf"
   y="115.703"
   x="92.336998" />
		<rect
   id="rect30"
   height="12.749"
   width="9.6619997"
   style="fill:#8fbdcf"
   y="135.295"
   x="65.498001" />
		<rect
   id="rect32"
   height="12.749"
   width="9.6619997"
   style="fill:#8fbdcf"
   y="135.295"
   x="78.917999" />
		<rect
   id="rect34"
   height="12.749"
   width="9.6619997"
   style="fill:#8fbdcf"
   y="135.295"
   x="92.336998" />
	</g>
	<g
   id="g50">
		<rect
   id="rect38"
   height="12.749"
   width="9.6619997"
   style="fill:#8fbdcf"
   y="115.703"
   x="130.985" />
		<rect
   id="rect40"
   height="12.749"
   width="9.6619997"
   style="fill:#8fbdcf"
   y="115.703"
   x="144.405" />
		<rect
   id="rect42"
   height="12.749"
   width="9.6619997"
   style="fill:#8fbdcf"
   y="115.703"
   x="157.825" />
		<rect
   id="rect44"
   height="12.749"
   width="9.6619997"
   style="fill:#8fbdcf"
   y="135.295"
   x="130.985" />
		<rect
   id="rect46"
   height="12.749"
   width="9.6619997"
   style="fill:#8fbdcf"
   y="135.295"
   x="144.405" />
		<rect
   id="rect48"
   height="12.749"
   width="9.6619997"
   style="fill:#8fbdcf"
   y="135.295"
   x="157.825" />
	</g>
	<path
   id="path52"
   d="m 85.071,69.224 c -0.73,0 -1.322,0.373 -1.322,0.833 v 86.333 c 0,0.46 0.592,0.833 1.322,0.833 0.731,0 1.323,-0.373 1.323,-0.833 V 70.057 c 10e-4,-0.46 -0.591,-0.833 -1.323,-0.833 z"
   style="fill:#58595b" />
	<path
   id="path54"
   d="m 83.749,70.64 c -2.854,0 -4.058,2.25 -5.831,2.833 -1.773,0.583 -4.774,0.917 -6.94,0.833 v 10 c 3.167,-0.083 5.584,-0.25 7.584,-1.667 2,-1.417 3.209,-1.75 5.188,-1.75 V 70.64 Z"
   style="fill:#ed2224" />
</g>
<g
   transform="translate(-18.501,-18.502)"
   id="Layer_1">
</g>
</svg>